<?xml version="1.0" encoding="UTF-8" standalone="no"?>
<!-- Created with Inkscape (http://www.inkscape.org/) -->
<svg xmlns:dc="http://purl.org/dc/elements/1.1/" xmlns:cc="http://creativecommons.org/ns#" xmlns:rdf="http://www.w3.org/1999/02/22-rdf-syntax-ns#" xmlns:svg="http://www.w3.org/2000/svg" xmlns="http://www.w3.org/2000/svg" xmlns:sodipodi="http://sodipodi.sourceforge.net/DTD/sodipodi-0.dtd" xmlns:inkscape="http://www.inkscape.org/namespaces/inkscape" width="241.33875" height="79.233749" id="svg3476" version="1.1" inkscape:version="0.48.1 r9760" sodipodi:docname="Nouveau document 6">
  <defs id="defs3478">
    <clipPath clipPathUnits="userSpaceOnUse" id="clipPath78">
      <path inkscape:connector-curvature="0" d="m 639.672,85.376 212.926,0 0,-88.258 -212.926,0 0,88.258 z" id="path80"/>
    </clipPath>
    <clipPath clipPathUnits="userSpaceOnUse" id="clipPath86">
      <path inkscape:connector-curvature="0" d="M 0,0 859,0 859,1208 0,1208 0,0 z" id="path88"/>
    </clipPath>
    <clipPath clipPathUnits="userSpaceOnUse" id="clipPath90">
      <path inkscape:connector-curvature="0" d="m 54.715,1085.449 830.227,0 0,-1178.137 -830.227,0 0,1178.137 z" id="path92"/>
    </clipPath>
    <clipPath clipPathUnits="userSpaceOnUse" id="clipPath94">
      <path inkscape:connector-curvature="0" d="M 0,0 859,0 859,1208 0,1208 0,0 z" id="path96"/>
    </clipPath>
  </defs>
  <sodipodi:namedview id="base" pagecolor="#ffffff" bordercolor="#666666" borderopacity="1.0" inkscape:pageopacity="0.0" inkscape:pageshadow="2" inkscape:zoom="0.35" inkscape:cx="164.2408" inkscape:cy="71.045446" inkscape:document-units="px" inkscape:current-layer="layer1" showgrid="false" fit-margin-top="0" fit-margin-left="0" fit-margin-right="0" fit-margin-bottom="0"/>
  <metadata id="metadata3481">
    <rdf:RDF>
      <cc:Work rdf:about="">
        <dc:format>image/svg+xml</dc:format>
        <dc:type rdf:resource="http://purl.org/dc/dcmitype/StillImage"/>
        <dc:title/>
      </cc:Work>
    </rdf:RDF>
  </metadata>
  <g inkscape:label="Calque 1" inkscape:groupmode="layer" id="layer1" transform="translate(-210.7592,-524.17388)">
    <g transform="matrix(1.25,0,0,-1.25,-605.2608,617.4763)" id="g74">
      <g id="g76" clip-path="url(#clipPath78)">
        <g id="g82" transform="translate(0,-0.440063)">
          <g id="g84"/>
          <g id="g98">
            <g clip-path="url(#clipPath86)" id="g100">
              <g id="g102"/>
              <g id="g104">
                <g clip-path="url(#clipPath90)" id="g106">
                  <g id="g108">
                    <g id="g110"/>
                    <g id="g112">
                      <g clip-path="url(#clipPath94)" id="g114">
                        <g id="g116"/>
                        <g id="g118">
                          <path inkscape:connector-curvature="0" d="m 679.055,27.453 0,0.695 -0.11,0 c -0.687,-0.632 -1.343,-0.839 -2.062,-0.839 -1.258,0 -2.371,0.656 -2.371,2.5 l 0,5.574 c 0.609,0.078 1.39,0.125 2.062,0.125 l 0,-5.422 c 0,-0.656 0.293,-0.981 1.227,-0.981 0.457,0 0.875,0.102 1.254,0.297 l 0,5.981 c 0.617,0.078 1.398,0.125 2.07,0.125 l 0,-8.055 -2.07,0 z" style="fill:#bd1823;fill-opacity:1;fill-rule:nonzero;stroke:none" id="path120"/>
                          <path inkscape:connector-curvature="0" d="m 689.648,27.453 0,5.422 c 0,0.625 -0.207,0.918 -1.089,0.918 -0.489,0 -0.957,-0.137 -1.391,-0.418 l 0,-5.922 -2.07,0 0,7.914 c 0.605,0.078 1.414,0.125 2.07,0.125 l 0,-0.797 0.109,0 c 0.809,0.766 1.422,0.907 2.09,0.907 1.262,0 2.348,-0.657 2.348,-2.497 l 0,-5.652 -2.067,0 z" style="fill:#bd1823;fill-opacity:1;fill-rule:nonzero;stroke:none" id="path122"/>
                          <path inkscape:connector-curvature="0" d="m 704.59,33.363 c -0.188,0.043 -0.512,0.09 -0.75,0.09 -0.57,0 -0.996,-0.105 -1.481,-0.437 l 0,-5.555 -2.07,0 0,7.906 c 0.594,0.078 1.406,0.125 2.07,0.125 l 0,-1.027 0.106,0 c 0.75,1.043 1.234,1.137 1.738,1.137 0.141,0 0.402,-0.032 0.57,-0.094 0,-0.719 -0.078,-1.446 -0.183,-2.145" style="fill:#bd1823;fill-opacity:1;fill-rule:nonzero;stroke:none" id="path124"/>
                          <path inkscape:connector-curvature="0" d="m 711.523,36.211 c -0.566,0 -1.199,0.047 -1.683,0.125 l 0.793,2.309 2.265,0 c -0.265,-0.844 -0.781,-1.762 -1.375,-2.434 m 0.438,-3.582 c 0,0.949 -0.332,1.426 -1.117,1.426 -0.774,0 -1.25,-0.555 -1.25,-1.836 l 2.359,0 c 0.008,0.093 0.008,0.332 0.008,0.41 m 2.027,-1.785 -4.41,0 0,-0.094 c 0,-1.008 0.399,-1.504 1.758,-1.504 0.703,0 1.672,0.215 2.164,0.496 0.176,-0.543 0.348,-1.308 0.438,-1.949 -0.7,-0.324 -1.915,-0.484 -2.633,-0.484 -2.524,0 -3.946,1.371 -3.946,4.039 0,2.816 1.469,4.254 3.524,4.254 2.23,0 3.164,-1.422 3.164,-3.551 0,-0.34 -0.016,-0.844 -0.059,-1.207" style="fill:#bd1823;fill-opacity:1;fill-rule:nonzero;stroke:none" id="path126"/>
                          <path inkscape:connector-curvature="0" d="m 719.594,27.309 c -0.906,0 -1.903,0.222 -2.559,0.578 0.149,0.687 0.27,1.211 0.473,1.855 0.625,-0.34 1.652,-0.574 2.418,-0.574 0.523,0 0.715,0.25 0.715,0.648 0,1.082 -3.528,0.332 -3.528,3.122 0,1.824 1.614,2.664 3.383,2.664 0.531,0 1.359,-0.079 1.984,-0.25 -0.031,-0.563 -0.14,-1.219 -0.277,-1.836 -0.566,0.172 -1.535,0.308 -2.203,0.308 -0.5,0 -0.73,-0.23 -0.73,-0.64 0,-1.106 3.519,-0.309 3.519,-3.305 0,-1.805 -1.59,-2.57 -3.195,-2.57" style="fill:#bd1823;fill-opacity:1;fill-rule:nonzero;stroke:none" id="path128"/>
                          <path inkscape:connector-curvature="0" d="m 730.254,32.629 c 0,0.949 -0.332,1.426 -1.109,1.426 -0.79,0 -1.258,-0.555 -1.258,-1.836 l 2.351,0 c 0.016,0.093 0.016,0.332 0.016,0.41 m 2.027,-1.793 -4.41,0 0,-0.086 c 0,-1.008 0.391,-1.504 1.758,-1.504 0.703,0 1.668,0.215 2.156,0.496 0.184,-0.535 0.356,-1.308 0.445,-1.949 -0.699,-0.316 -1.914,-0.484 -2.632,-0.484 -2.524,0 -3.946,1.371 -3.946,4.039 0,2.808 1.469,4.254 3.516,4.254 2.238,0 3.172,-1.422 3.172,-3.551 0,-0.34 -0.016,-0.844 -0.059,-1.215" style="fill:#bd1823;fill-opacity:1;fill-rule:nonzero;stroke:none" id="path130"/>
                          <path inkscape:connector-curvature="0" d="m 739.582,30.738 -1.258,-0.047 c -0.672,-0.035 -0.933,-0.218 -0.933,-0.937 0,-0.609 0.261,-0.856 0.839,-0.856 0.45,0 1.012,0.106 1.352,0.364 l 0,1.476 z m 1.824,-3.429 c -0.695,0 -1.215,0.175 -1.492,0.824 l -0.09,0 c -0.625,-0.555 -1.297,-0.824 -2.094,-0.824 -1.398,0 -2.402,0.703 -2.402,2.308 0,1.762 1.082,2.356 2.996,2.434 l 1.258,0.043 0,1.359 c -0.383,0.235 -0.941,0.309 -1.488,0.309 -0.641,0 -1.344,-0.137 -1.809,-0.332 -0.125,0.504 -0.254,1.191 -0.285,1.847 0.703,0.2 1.469,0.325 2.262,0.325 1.195,0 2.496,-0.293 3.289,-0.934 l 0,-4.758 c 0,-0.402 0.109,-0.539 0.48,-0.539 l 0.824,0 0,-0.691 c 0,-1.055 -0.625,-1.371 -1.449,-1.371" style="fill:#bd1823;fill-opacity:1;fill-rule:nonzero;stroke:none" id="path132"/>
                          <path inkscape:connector-curvature="0" d="m 750.199,27.453 0,0.695 -0.109,0 c -0.676,-0.632 -1.34,-0.839 -2.059,-0.839 -1.254,0 -2.371,0.656 -2.371,2.5 l 0,5.574 c 0.61,0.078 1.391,0.125 2.063,0.125 l 0,-5.422 c 0,-0.656 0.293,-0.981 1.226,-0.981 0.465,0 0.875,0.102 1.25,0.297 l 0,5.981 c 0.617,0.078 1.399,0.125 2.071,0.125 l 0,-8.055 -2.071,0 z" style="fill:#bd1823;fill-opacity:1;fill-rule:nonzero;stroke:none" id="path134"/>
                          <path inkscape:connector-curvature="0" d="m 756.309,24.812 -1.801,0.395 c 1.281,1.512 1.613,2.16 1.613,3.445 l 0,0.532 1.918,0 c 0.043,-0.192 0.059,-0.625 0.059,-0.829 0,-1.187 -0.7,-2.351 -1.789,-3.543" style="fill:#bd1823;fill-opacity:1;fill-rule:nonzero;stroke:none" id="path136"/>
                          <path inkscape:connector-curvature="0" d="m 770.949,33.531 c -0.265,0.172 -0.758,0.309 -1.168,0.309 -1.09,0 -1.511,-0.625 -1.511,-2.434 0,-1.789 0.378,-2.301 1.343,-2.301 0.563,0 1.043,0.125 1.336,0.297 l 0,4.129 z m 0,-6.078 0,0.68 -0.117,0 c -0.594,-0.633 -1.25,-0.824 -1.937,-0.824 -1.825,0 -2.836,1.328 -2.836,3.914 0,3.089 1.461,4.379 3.507,4.379 0.434,0 0.996,-0.094 1.383,-0.204 l 0,3.309 c 0.594,0.074 1.406,0.137 2.063,0.137 l 0,-11.391 -2.063,0 z" style="fill:#bd1823;fill-opacity:1;fill-rule:nonzero;stroke:none" id="path138"/>
                          <path inkscape:connector-curvature="0" d="m 781.094,32.629 c 0,0.949 -0.34,1.426 -1.121,1.426 -0.778,0 -1.246,-0.555 -1.246,-1.836 l 2.351,0 c 0.016,0.093 0.016,0.332 0.016,0.41 m 2.015,-1.793 -4.402,0 0,-0.086 c 0,-1.008 0.395,-1.504 1.762,-1.504 0.703,0 1.66,0.215 2.152,0.496 0.188,-0.535 0.352,-1.308 0.449,-1.949 -0.711,-0.316 -1.914,-0.484 -2.632,-0.484 -2.524,0 -3.954,1.371 -3.954,4.039 0,2.808 1.469,4.254 3.52,4.254 2.234,0 3.168,-1.422 3.168,-3.551 0,-0.34 -0.016,-0.844 -0.063,-1.215" style="fill:#bd1823;fill-opacity:1;fill-rule:nonzero;stroke:none" id="path140"/>
                          <path inkscape:connector-curvature="0" d="m 788.715,27.309 c -0.903,0 -1.899,0.222 -2.555,0.578 0.152,0.687 0.278,1.211 0.473,1.855 0.633,-0.34 1.652,-0.574 2.422,-0.574 0.519,0 0.718,0.25 0.718,0.648 0,1.082 -3.535,0.332 -3.535,3.122 0,1.824 1.621,2.664 3.379,2.664 0.535,0 1.363,-0.079 1.992,-0.25 -0.035,-0.563 -0.136,-1.219 -0.273,-1.836 -0.574,0.172 -1.547,0.308 -2.203,0.308 -0.512,0 -0.742,-0.23 -0.742,-0.64 0,-1.106 3.523,-0.309 3.523,-3.305 0,-1.805 -1.594,-2.57 -3.199,-2.57" style="fill:#bd1823;fill-opacity:1;fill-rule:nonzero;stroke:none" id="path142"/>
                          <path inkscape:connector-curvature="0" d="m 803.086,33.855 c -0.973,0 -1.453,-0.656 -1.453,-2.402 0,-1.726 0.433,-2.398 1.422,-2.398 0.98,0 1.457,0.656 1.457,2.398 0,1.731 -0.43,2.402 -1.426,2.402 m -0.039,-6.546 c -2.149,0 -3.613,1.281 -3.613,4.144 0,2.586 1.531,4.149 3.668,4.149 2.07,0 3.613,-1.2 3.613,-4.149 0,-2.68 -1.606,-4.144 -3.668,-4.144" style="fill:#bd1823;fill-opacity:1;fill-rule:nonzero;stroke:none" id="path144"/>
                          <path inkscape:connector-curvature="0" d="m 814.707,27.453 0,0.695 -0.109,0 c -0.688,-0.632 -1.344,-0.839 -2.071,-0.839 -1.25,0 -2.367,0.656 -2.367,2.5 l 0,5.574 c 0.617,0.078 1.387,0.125 2.067,0.125 l 0,-5.422 c 0,-0.656 0.293,-0.981 1.222,-0.981 0.461,0 0.871,0.102 1.258,0.297 l 0,5.981 c 0.609,0.078 1.391,0.125 2.07,0.125 l 0,-8.055 -2.07,0 z" style="fill:#bd1823;fill-opacity:1;fill-rule:nonzero;stroke:none" id="path146"/>
                          <path inkscape:connector-curvature="0" d="m 823.734,27.309 c -1.879,0 -2.75,0.918 -2.75,2.855 l 0,3.477 -0.902,0 0,1.804 0.902,0 0,1.653 c 0.61,0.14 1.422,0.297 2.063,0.34 l 0,-1.993 2.066,0 c 0,-0.578 -0.027,-1.179 -0.105,-1.804 l -1.961,0 0,-3.59 c 0,-0.742 0.324,-0.852 1.012,-0.852 0.386,0 0.902,0.125 1.148,0.246 0.125,-0.515 0.219,-1.164 0.27,-1.757 -0.422,-0.219 -1.293,-0.379 -1.743,-0.379" style="fill:#bd1823;fill-opacity:1;fill-rule:nonzero;stroke:none" id="path148"/>
                          <path inkscape:connector-curvature="0" d="m 828.574,35.445 2.071,0 0,-7.992 -2.071,0 0,7.992 z m 1.028,0.891 c -0.766,0 -1.149,0.562 -1.149,1.172 0,0.617 0.367,1.215 1.164,1.215 0.781,0 1.153,-0.582 1.153,-1.215 0,-0.625 -0.391,-1.172 -1.168,-1.172" style="fill:#bd1823;fill-opacity:1;fill-rule:nonzero;stroke:none" id="path150"/>
                          <path inkscape:connector-curvature="0" d="m 834.621,27.453 0,11.254 c 0.602,0.074 1.414,0.137 2.07,0.137 l 0,-11.391 -2.07,0 z" style="fill:#bd1823;fill-opacity:1;fill-rule:nonzero;stroke:none" id="path152"/>
                          <path inkscape:connector-curvature="0" d="m 842.691,27.309 c -0.906,0 -1.902,0.222 -2.558,0.578 0.148,0.687 0.281,1.211 0.472,1.855 0.633,-0.34 1.653,-0.574 2.418,-0.574 0.524,0 0.715,0.25 0.715,0.648 0,1.082 -3.527,0.332 -3.527,3.122 0,1.824 1.621,2.664 3.375,2.664 0.543,0 1.367,-0.079 1.992,-0.25 -0.031,-0.563 -0.129,-1.219 -0.269,-1.836 -0.575,0.172 -1.555,0.308 -2.211,0.308 -0.5,0 -0.731,-0.23 -0.731,-0.64 0,-1.106 3.52,-0.309 3.52,-3.305 0,-1.805 -1.59,-2.57 -3.196,-2.57" style="fill:#bd1823;fill-opacity:1;fill-rule:nonzero;stroke:none" id="path154"/>
                          <path inkscape:connector-curvature="0" d="m 711.562,11.848 -2.085,0 -1.422,4.734 c -0.075,0.234 -0.153,0.594 -0.184,0.91 l -0.109,0 c -0.047,-0.332 -0.121,-0.676 -0.2,-0.926 l -1.39,-4.718 -2.078,0 c -0.746,2.543 -1.274,5.129 -1.653,7.918 0.602,0.074 1.407,0.121 2.016,0.121 l 0.766,-4.61 c 0.043,-0.246 0.109,-0.734 0.125,-1.011 l 0.105,0 c 0.031,0.293 0.125,0.757 0.203,1.027 l 1.297,4.547 2.008,0 1.266,-4.516 0.246,-1.043 0.109,0 c 0.016,0.34 0.043,0.711 0.109,1.043 l 0.762,4.563 c 0.531,0 1.266,-0.047 1.836,-0.137 -0.383,-2.59 -0.918,-5.113 -1.727,-7.902" style="fill:#bd1823;fill-opacity:1;fill-rule:nonzero;stroke:none" id="path156"/>
                          <path inkscape:connector-curvature="0" d="m 724.621,11.848 -2.086,0 -1.422,4.734 c -0.078,0.234 -0.156,0.594 -0.187,0.91 l -0.106,0 c -0.047,-0.332 -0.125,-0.676 -0.203,-0.926 l -1.387,-4.718 -2.078,0 c -0.75,2.543 -1.273,5.129 -1.652,7.918 0.602,0.074 1.406,0.121 2.016,0.121 l 0.765,-4.61 c 0.043,-0.246 0.106,-0.734 0.121,-1.011 l 0.11,0 c 0.031,0.293 0.121,0.757 0.199,1.027 l 1.297,4.547 2.008,0 1.269,-4.516 0.246,-1.043 0.106,0 c 0.015,0.34 0.047,0.711 0.109,1.043 l 0.766,4.563 c 0.531,0 1.265,-0.047 1.836,-0.137 -0.387,-2.59 -0.926,-5.113 -1.727,-7.902" style="fill:#bd1823;fill-opacity:1;fill-rule:nonzero;stroke:none" id="path158"/>
                          <path inkscape:connector-curvature="0" d="m 737.668,11.848 -2.078,0 -1.418,4.734 c -0.078,0.234 -0.156,0.594 -0.188,0.91 l -0.109,0 c -0.043,-0.332 -0.121,-0.676 -0.199,-0.926 l -1.391,-4.718 -2.074,0 c -0.75,2.543 -1.277,5.129 -1.652,7.918 0.597,0.074 1.402,0.121 2.011,0.121 l 0.766,-4.61 c 0.047,-0.246 0.109,-0.734 0.125,-1.011 l 0.105,0 c 0.032,0.293 0.125,0.757 0.204,1.027 l 1.296,4.547 2.008,0 1.266,-4.516 0.246,-1.043 0.109,0 c 0.016,0.34 0.047,0.711 0.11,1.043 l 0.761,4.563 c 0.536,0 1.27,-0.047 1.832,-0.137 -0.378,-2.59 -0.921,-5.113 -1.73,-7.902" style="fill:#bd1823;fill-opacity:1;fill-rule:nonzero;stroke:none" id="path160"/>
                          <path inkscape:connector-curvature="0" d="m 742.508,11.695 c -0.672,0 -1.156,0.356 -1.156,1.153 0,0.777 0.515,1.164 1.156,1.164 0.629,0 1.137,-0.387 1.137,-1.164 0,-0.797 -0.508,-1.153 -1.137,-1.153" style="fill:#bd1823;fill-opacity:1;fill-rule:nonzero;stroke:none" id="path162"/>
                          <path inkscape:connector-curvature="0" d="m 750.27,15.121 -1.25,-0.043 c -0.68,-0.031 -0.934,-0.211 -0.934,-0.926 0,-0.621 0.254,-0.859 0.84,-0.859 0.441,0 1.004,0.102 1.344,0.363 l 0,1.465 z m 1.824,-3.426 c -0.688,0 -1.215,0.184 -1.485,0.828 l -0.093,0 c -0.625,-0.55 -1.297,-0.828 -2.098,-0.828 -1.391,0 -2.402,0.711 -2.402,2.317 0,1.758 1.089,2.355 3.004,2.433 l 1.25,0.043 0,1.36 c -0.379,0.234 -0.934,0.308 -1.485,0.308 -0.637,0 -1.347,-0.136 -1.805,-0.34 -0.121,0.512 -0.261,1.2 -0.292,1.856 0.71,0.199 1.476,0.324 2.269,0.324 1.191,0 2.496,-0.297 3.289,-0.934 l 0,-4.765 c 0,-0.395 0.109,-0.531 0.473,-0.531 l 0.824,0 0,-0.688 c 0,-1.058 -0.625,-1.383 -1.449,-1.383" style="fill:#bd1823;fill-opacity:1;fill-rule:nonzero;stroke:none" id="path164"/>
                          <path inkscape:connector-curvature="0" d="m 760.16,11.848 0,5.422 c 0,0.625 -0.215,0.918 -1.09,0.918 -0.492,0 -0.965,-0.137 -1.386,-0.415 l 0,-5.925 -2.071,0 0,7.918 c 0.594,0.074 1.407,0.121 2.071,0.121 l 0,-0.793 0.109,0 c 0.809,0.761 1.418,0.902 2.09,0.902 1.25,0 2.34,-0.664 2.34,-2.504 l 0,-5.644 -2.063,0 z" style="fill:#bd1823;fill-opacity:1;fill-rule:nonzero;stroke:none" id="path166"/>
                          <path inkscape:connector-curvature="0" d="m 765.383,19.84 2.062,0 0,-7.992 -2.062,0 0,7.992 z m 1.023,0.89 c -0.769,0 -1.148,0.563 -1.148,1.172 0,0.618 0.371,1.211 1.164,1.211 0.781,0 1.144,-0.586 1.144,-1.211 0,-0.625 -0.378,-1.172 -1.16,-1.172" style="fill:#bd1823;fill-opacity:1;fill-rule:nonzero;stroke:none" id="path168"/>
                          <path inkscape:connector-curvature="0" d="m 779.141,11.848 0,5.437 c 0,0.563 -0.184,0.903 -0.934,0.903 -0.48,0 -0.902,-0.153 -1.242,-0.415 l 0,-5.925 -2.07,0 0,5.422 c 0,0.593 -0.165,0.918 -0.864,0.918 -0.449,0 -0.922,-0.153 -1.308,-0.415 l 0,-5.925 -2.059,0 0,7.918 c 0.594,0.074 1.402,0.121 2.059,0.121 l 0,-0.793 0.109,0 c 0.75,0.672 1.289,0.902 2.039,0.902 0.781,0 1.391,-0.262 1.731,-1.012 0.777,0.797 1.433,1.012 2.261,1.012 1.352,0 2.34,-0.742 2.34,-2.48 l 0,-5.668 -2.062,0 z" style="fill:#bd1823;fill-opacity:1;fill-rule:nonzero;stroke:none" id="path170"/>
                          <path inkscape:connector-curvature="0" d="m 788.074,15.121 -1.25,-0.043 c -0.672,-0.031 -0.933,-0.211 -0.933,-0.926 0,-0.621 0.261,-0.859 0.839,-0.859 0.45,0 1.012,0.102 1.344,0.363 l 0,1.465 z m 1.824,-3.426 c -0.687,0 -1.203,0.184 -1.484,0.828 l -0.094,0 c -0.625,-0.55 -1.297,-0.828 -2.097,-0.828 -1.391,0 -2.395,0.711 -2.395,2.317 0,1.758 1.082,2.355 2.996,2.433 l 1.25,0.043 0,1.36 c -0.379,0.234 -0.926,0.308 -1.48,0.308 -0.641,0 -1.348,-0.136 -1.801,-0.34 -0.129,0.512 -0.262,1.2 -0.293,1.856 0.703,0.199 1.469,0.324 2.262,0.324 1.199,0 2.496,-0.297 3.289,-0.934 l 0,-4.765 c 0,-0.395 0.109,-0.531 0.48,-0.531 l 0.824,0 0,-0.688 c 0,-1.058 -0.625,-1.383 -1.457,-1.383" style="fill:#bd1823;fill-opacity:1;fill-rule:nonzero;stroke:none" id="path172"/>
                          <path inkscape:connector-curvature="0" d="m 797.387,21.34 c -0.153,0.031 -0.641,0.062 -0.84,0.062 -0.59,0 -0.766,-0.281 -0.766,-0.843 l 0,-0.719 1.699,0 c 0,-0.602 -0.046,-1.211 -0.125,-1.805 l -1.574,0 0,-6.187 -2.07,0 0,6.187 -0.895,0 0,1.805 0.895,0 0,0.551 c 0,1.777 1.215,2.847 2.742,2.847 0.332,0 0.871,-0.047 1.043,-0.078 0,-0.601 -0.031,-1.211 -0.109,-1.82" style="fill:#bd1823;fill-opacity:1;fill-rule:nonzero;stroke:none" id="path174"/>
                          <path inkscape:connector-curvature="0" d="m 803.48,15.121 -1.261,-0.043 c -0.672,-0.031 -0.922,-0.211 -0.922,-0.926 0,-0.621 0.25,-0.859 0.832,-0.859 0.445,0 1.012,0.102 1.351,0.363 l 0,1.465 z m 1.821,-3.426 c -0.696,0 -1.211,0.184 -1.481,0.828 l -0.101,0 c -0.625,-0.55 -1.297,-0.828 -2.09,-0.828 -1.395,0 -2.402,0.711 -2.402,2.317 0,1.758 1.082,2.355 2.992,2.433 l 1.261,0.043 0,1.36 c -0.386,0.234 -0.937,0.308 -1.492,0.308 -0.64,0 -1.343,-0.136 -1.797,-0.34 -0.125,0.512 -0.265,1.2 -0.293,1.856 0.7,0.199 1.473,0.324 2.262,0.324 1.195,0 2.5,-0.297 3.289,-0.934 l 0,-4.765 c 0,-0.395 0.11,-0.531 0.477,-0.531 l 0.828,0 0,-0.688 c 0,-1.058 -0.625,-1.383 -1.453,-1.383" style="fill:#bd1823;fill-opacity:1;fill-rule:nonzero;stroke:none" id="path176"/>
                          <path inkscape:connector-curvature="0" d="m 812.129,11.695 c -2.418,0 -3.817,1.305 -3.817,4.016 0,3.008 1.692,4.285 3.583,4.285 0.781,0 1.605,-0.094 2.171,-0.297 -0.086,-0.578 -0.254,-1.332 -0.441,-1.976 -0.469,0.203 -1.066,0.297 -1.574,0.297 -1.028,0 -1.528,-0.536 -1.528,-2.133 0,-1.785 0.485,-2.215 1.696,-2.215 0.519,0 1.129,0.156 1.547,0.371 0.168,-0.617 0.316,-1.273 0.39,-1.93 -0.453,-0.246 -1.402,-0.418 -2.027,-0.418" style="fill:#bd1823;fill-opacity:1;fill-rule:nonzero;stroke:none" id="path178"/>
                          <path inkscape:connector-curvature="0" d="m 817.57,11.695 c -0.672,0 -1.156,0.356 -1.156,1.153 0,0.777 0.524,1.164 1.156,1.164 0.633,0 1.137,-0.387 1.137,-1.164 0,-0.797 -0.504,-1.153 -1.137,-1.153" style="fill:#bd1823;fill-opacity:1;fill-rule:nonzero;stroke:none" id="path180"/>
                          <path inkscape:connector-curvature="0" d="m 826.168,11.848 0,5.422 c 0,0.625 -0.219,0.918 -1.09,0.918 -0.496,0 -0.965,-0.137 -1.398,-0.415 l 0,-5.925 -2.063,0 0,7.918 c 0.598,0.074 1.406,0.121 2.063,0.121 l 0,-0.793 0.113,0 c 0.805,0.761 1.422,0.902 2.094,0.902 1.254,0 2.34,-0.664 2.34,-2.504 l 0,-5.644 -2.059,0 z" style="fill:#bd1823;fill-opacity:1;fill-rule:nonzero;stroke:none" id="path182"/>
                          <path inkscape:connector-curvature="0" d="m 835.484,17.023 c 0,0.95 -0.336,1.43 -1.117,1.43 -0.781,0 -1.254,-0.558 -1.254,-1.84 l 2.36,0 c 0.011,0.086 0.011,0.332 0.011,0.41 m 2.016,-1.793 -4.402,0 0,-0.089 c 0,-1.008 0.394,-1.5 1.761,-1.5 0.703,0 1.668,0.214 2.157,0.492 0.183,-0.539 0.347,-1.305 0.441,-1.942 -0.707,-0.324 -1.91,-0.488 -2.629,-0.488 -2.523,0 -3.945,1.375 -3.945,4.039 0,2.809 1.461,4.254 3.515,4.254 2.231,0 3.172,-1.43 3.172,-3.551 0,-0.343 -0.015,-0.843 -0.07,-1.215" style="fill:#bd1823;fill-opacity:1;fill-rule:nonzero;stroke:none" id="path184"/>
                          <path inkscape:connector-curvature="0" d="m 843.309,11.695 c -1.887,0 -2.758,0.918 -2.758,2.864 l 0,3.476 -0.903,0 0,1.805 0.903,0 0,1.652 c 0.609,0.133 1.422,0.293 2.07,0.332 l 0,-1.984 2.063,0 c 0,-0.586 -0.032,-1.18 -0.102,-1.805 l -1.961,0 0,-3.601 c 0,-0.731 0.317,-0.84 1.004,-0.84 0.387,0 0.902,0.125 1.148,0.25 0.125,-0.52 0.219,-1.168 0.278,-1.762 -0.43,-0.215 -1.297,-0.387 -1.742,-0.387" style="fill:#bd1823;fill-opacity:1;fill-rule:nonzero;stroke:none" id="path186"/>
                          <path inkscape:connector-curvature="0" d="m 749.281,64.457 -3.035,-3.035 -3.043,3.035 -10.707,0 0,-20.133 6.121,0 0,14.004 4.586,0 0,-6.078 6.078,0 0,6.078 4.586,0 0,-14.004 6.133,0 0,14.004 -6.133,6.129 -4.586,0 z m 39.164,0 0,-20.133 6.133,0 0,8.977 6.074,0 0,6.129 -6.074,0 0,5.027 9.172,0 0,6.133 -9.172,0 -6.133,-6.133 z m 28.5,-14.727 -6.078,0 0,2.325 6.078,0 0,-2.325 z m -9.66,17.614 0,-6.125 9.66,0 0,-3.039 -6.078,0 -6.121,-6.133 0,-7.723 18.332,0 0,16.895 -6.133,6.125 -9.66,0 z m 36.824,-9.016 0,6.129 -9.464,0 -6.133,-6.129 0,-7.871 6.133,-6.133 9.464,0 0,6.133 -9.464,0 0,7.871 9.464,0 z m -67.168,-8.598 -6.078,0 0,2.325 6.078,0 0,-2.325 z m -9.668,17.614 0,-6.125 9.668,0 0,-3.039 -6.078,0 -6.129,-6.133 0,-7.723 18.336,0 0,16.895 -6.129,6.125 -9.668,0 z m -46.238,-23.02 6.133,0 0,19.985 -6.133,0 0,-19.985 z m -23.765,20.133 0,-20.133 6.121,0 0,14.004 6.078,0 0,-14.004 6.133,0 0,14.004 -6.133,6.129 -12.199,0 z m -11.516,-6.078 -6.074,0 0,4.734 6.074,0 0,-4.734 z m 6.133,4.734 -6.133,6.129 -6.074,0 -6.133,-6.129 0,-18.789 6.133,0 0,7.981 6.074,0 0,-7.981 6.133,0 0,7.988 0.726,0 0,6.083 -0.726,0 0,4.718 z" style="fill:#bd1823;fill-opacity:1;fill-rule:nonzero;stroke:none" id="path188"/>
                          <path inkscape:connector-curvature="0" d="m 663.578,67.949 4.82,-1.711 -1.089,-3.125 -4.371,1.559 1.082,-4.508 -3.25,-0.781 -1.082,4.504 -3.18,-3.383 -2.403,2.293 3.512,3.715 -4.801,1.66 1.079,3.133 4.363,-1.512 -1.082,4.508 3.246,0.781 1.082,-4.5 3.195,3.332 2.403,-2.293 -3.524,-3.672 z" style="fill:#bd1823;fill-opacity:1;fill-rule:nonzero;stroke:none" id="path190"/>
                        </g>
                      </g>
                    </g>
                  </g>
                </g>
              </g>
            </g>
          </g>
        </g>
      </g>
    </g>
  </g>
</svg>